<?xml version="1.0" encoding="utf-8"?>
<!-- Generator: Adobe Illustrator 17.1.0, SVG Export Plug-In . SVG Version: 6.00 Build 0)  -->
<!DOCTYPE svg PUBLIC "-//W3C//DTD SVG 1.1//EN" "http://www.w3.org/Graphics/SVG/1.1/DTD/svg11.dtd">
<svg version="1.1" id="Layer_1" xmlns="http://www.w3.org/2000/svg" xmlns:xlink="http://www.w3.org/1999/xlink" x="0px" y="0px"
	 viewBox="0 0 595.3 841.9" enable-background="new 0 0 595.3 841.9" xml:space="preserve">
<title>flogo-HexRBG-Wht-72</title>
<path fill="#FFFFFF" d="M562.2,123.3H33.1C14.8,123.3,0,138.1,0,156.4v529.1c0,18.3,14.8,33.1,33.1,33.1H318V488.4h-77.3v-90.1H318
	v-66.1c0-76.9,47-118.7,115.7-118.7c23.1-0.1,46.3,1.1,69.3,3.6V297h-47.6c-37.2,0-44.4,17.7-44.4,43.7V398h89.2l-11.6,90.1H411
	v230.4h151.2c18.3,0,33.1-14.8,33.1-33.1v-529C595.3,138.1,580.5,123.3,562.2,123.3z"/>
</svg>
