<?xml version="1.0" encoding="utf-8"?>
<!-- Generator: Adobe Illustrator 17.1.0, SVG Export Plug-In . SVG Version: 6.00 Build 0)  -->
<!DOCTYPE svg PUBLIC "-//W3C//DTD SVG 1.1//EN" "http://www.w3.org/Graphics/SVG/1.1/DTD/svg11.dtd">
<svg version="1.1" id="Logo" xmlns="http://www.w3.org/2000/svg" xmlns:xlink="http://www.w3.org/1999/xlink" x="0px" y="0px"
	 viewBox="0 0 595.3 841.9" enable-background="new 0 0 595.3 841.9" xml:space="preserve">
<g>
	<path fill="#FFFFFF" d="M297.6,180.9c78.2,0,87.4,0.3,118.4,1.7c28.6,1.3,44.1,6,54.4,10.1c13.7,5.3,23.5,11.6,33.7,21.9
		c10.2,10.2,16.6,20,21.9,33.7c4,10.3,8.8,25.8,10.1,54.4c1.4,30.9,1.7,40.1,1.7,118.4s-0.3,87.4-1.7,118.4
		c-1.3,28.6-6,44.1-10.1,54.4c-5.3,13.7-11.6,23.5-21.9,33.7c-10.2,10.2-20,16.6-33.7,21.9c-10.3,4-25.8,8.8-54.4,10.1
		c-30.9,1.4-40.1,1.7-118.4,1.7s-87.4-0.3-118.4-1.7c-28.6-1.3-44.1-6-54.4-10.1c-13.7-5.3-23.5-11.6-33.7-21.9
		c-10.2-10.2-16.6-20-21.9-33.7c-4-10.3-8.8-25.8-10.1-54.4c-1.4-30.9-1.7-40.1-1.7-118.4s0.3-87.4,1.7-118.4
		c1.3-28.6,6-44.1,10.1-54.4c5.3-13.7,11.6-23.5,21.9-33.7c10.3-10.2,20-16.6,33.7-21.9c10.3-4,25.8-8.8,54.4-10.1
		C210.2,181.1,219.4,180.9,297.6,180.9 M297.6,128.1c-79.5,0-89.5,0.3-120.8,1.7c-31.2,1.4-52.4,6.4-71,13.6
		c-19.3,7.4-35.6,17.6-51.9,33.8s-26.3,32.7-33.8,51.9C12.9,247.7,7.9,269,6.5,300.3C5.1,331.5,4.8,341.5,4.8,421
		s0.3,89.5,1.7,120.8c1.4,31.2,6.4,52.4,13.6,71.2c7.4,19.3,17.6,35.6,33.8,51.9c16.3,16.3,32.7,26.3,51.9,33.8
		c18.6,7.2,39.9,12.2,71.2,13.6s41.2,1.7,120.8,1.7s89.5-0.3,120.8-1.7c31.2-1.4,52.4-6.4,71.2-13.6c19.3-7.4,35.6-17.6,51.9-33.8
		c16.3-16.3,26.3-32.7,33.8-51.9c7.2-18.6,12.2-39.9,13.6-71.2c1.4-31.3,1.7-41.2,1.7-120.8s-0.3-89.5-1.7-120.8
		c-1.4-31.2-6.4-52.4-13.6-71.2c-7.4-19.3-17.6-35.6-33.8-51.9c-16.3-16.3-32.7-26.3-51.9-33.8c-18.6-7.2-39.9-12.2-71.2-13.6
		C387.2,128.4,377.2,128.1,297.6,128.1L297.6,128.1z"/>
	<path fill="#FFFFFF" d="M297.6,270.5c-83,0-150.4,67.3-150.4,150.4s67.4,150.4,150.4,150.4S448.1,504,448.1,420.9
		S380.7,270.5,297.6,270.5z M297.6,518.6c-53.9,0-97.7-43.7-97.7-97.7s43.7-97.7,97.7-97.7s97.7,43.7,97.7,97.7
		S351.6,518.6,297.6,518.6z"/>
	<circle fill="#FFFFFF" cx="454" cy="264.6" r="35.1"/>
</g>
</svg>
